<?xml version="1.0" standalone="no"?>
<!DOCTYPE svg PUBLIC "-//W3C//DTD SVG 20010904//EN"
 "http://www.w3.org/TR/2001/REC-SVG-20010904/DTD/svg10.dtd">
<svg version="1.0" xmlns="http://www.w3.org/2000/svg"
 width="534.000000pt" height="534.000000pt" viewBox="0 0 534.000000 534.000000"
 preserveAspectRatio="xMidYMid meet">
<metadata>
Created by potrace 1.16, written by Peter Selinger 2001-2019
</metadata>
<g transform="translate(0.000000,534.000000) scale(0.100000,-0.100000)"
fill="#000000" stroke="none">
<path d="M0 2670 l0 -2670 2670 0 2670 0 0 2670 0 2670 -2670 0 -2670 0 0
-2670z m2776 2479 c287 -68 1744 -549 1921 -634 271 -130 296 -217 257 -875
-11 -186 -18 -545 -23 -1205 l-7 -940 -24 -58 c-15 -37 -37 -70 -62 -92 -50
-43 -239 -139 -593 -303 -154 -71 -408 -190 -565 -265 -471 -223 -651 -293
-840 -324 -87 -14 -114 -15 -187 -4 -226 32 -671 206 -1171 457 l-223 111 -10
-26 c-48 -128 -220 -203 -429 -187 -235 17 -403 106 -484 256 -36 65 -37 121
-5 187 31 66 122 152 197 188 44 21 61 34 57 45 -18 62 -70 394 -129 835 -85
632 -143 1480 -126 1826 7 140 33 202 110 273 64 57 156 95 474 197 529 169
802 262 1032 350 622 238 622 238 830 188z m-1007 -4574 c80 -19 148 -55 196
-105 32 -33 37 -45 38 -87 1 -99 -70 -173 -214 -224 -54 -20 -85 -23 -194 -24
-200 0 -333 43 -386 127 -28 45 -23 132 11 181 42 61 138 115 245 137 68 13
236 11 304 -5z"/>
</g>
</svg>
